<?xml version="1.0" encoding="UTF-8"?>
<!DOCTYPE svg PUBLIC "-//W3C//DTD SVG 1.1//EN" "http://www.w3.org/Graphics/SVG/1.1/DTD/svg11.dtd">
<svg xmlns="http://www.w3.org/2000/svg" version="1.1" width="293px" height="157px" style="shape-rendering:geometricPrecision; text-rendering:geometricPrecision; image-rendering:optimizeQuality; fill-rule:evenodd; clip-rule:evenodd" xmlns:xlink="http://www.w3.org/1999/xlink">
<g><path style="opacity:0.946" fill="#323830" d="M 0.5,-0.5 C 1.5,-0.5 2.5,-0.5 3.5,-0.5C 4.75055,2.79261 4.75055,6.12595 3.5,9.5C 2.27359,10.3629 0.940261,10.3629 -0.5,9.5C -0.5,6.5 -0.5,3.5 -0.5,0.5C 0.166667,0.5 0.5,0.166667 0.5,-0.5 Z"/></g>
<g><path style="opacity:0.973" fill="#333930" d="M 287.5,-0.5 C 288.833,-0.5 290.167,-0.5 291.5,-0.5C 291.5,0.166667 291.833,0.5 292.5,0.5C 292.5,3.16667 292.5,5.83333 292.5,8.5C 290.643,11.0176 288.81,11.0176 287,8.5C 286.366,5.44531 286.532,2.44531 287.5,-0.5 Z"/></g>
<g><path style="opacity:0.935" fill="#323830" d="M -0.5,38.5 C -0.5,33.8333 -0.5,29.1667 -0.5,24.5C 1.00978,23.2721 2.50978,23.2721 4,24.5C 4.66667,28.8333 4.66667,33.1667 4,37.5C 2.64387,38.3802 1.14387,38.7135 -0.5,38.5 Z"/></g>
<g><path style="opacity:0.965" fill="#323830" d="M 292.5,24.5 C 292.5,28.8333 292.5,33.1667 292.5,37.5C 287.01,39.2117 285.01,37.045 286.5,31C 285.01,24.955 287.01,22.7883 292.5,24.5 Z"/></g>
<g><path style="opacity:0.944" fill="#333930" d="M -0.5,52.5 C 1.16667,52.5 2.83333,52.5 4.5,52.5C 4.66582,57.1785 4.49915,61.8452 4,66.5C 2.50978,67.7279 1.00978,67.7279 -0.5,66.5C -0.5,61.8333 -0.5,57.1667 -0.5,52.5 Z"/></g>
<g><path style="opacity:0.993" fill="#323830" d="M 292.5,53.5 C 292.5,57.5 292.5,61.5 292.5,65.5C 290.643,68.0176 288.81,68.0176 287,65.5C 286.333,61.5 286.333,57.5 287,53.5C 288.6,51.4533 290.433,51.4533 292.5,53.5 Z"/></g>
<g><path style="opacity:0.932" fill="#323830" d="M -0.5,95.5 C -0.5,90.8333 -0.5,86.1667 -0.5,81.5C 1.00978,80.2721 2.50978,80.2721 4,81.5C 4.66667,85.8333 4.66667,90.1667 4,94.5C 2.64387,95.3802 1.14387,95.7135 -0.5,95.5 Z"/></g>
<g><path style="opacity:0.972" fill="#323830" d="M 292.5,81.5 C 292.5,85.8333 292.5,90.1667 292.5,94.5C 287.01,96.2117 285.01,94.045 286.5,88C 285.01,81.955 287.01,79.7883 292.5,81.5 Z"/></g>
<g><path style="opacity:0.942" fill="#323930" d="M -0.5,109.5 C 1.16667,109.5 2.83333,109.5 4.5,109.5C 4.66582,114.179 4.49915,118.845 4,123.5C 2.50978,124.728 1.00978,124.728 -0.5,123.5C -0.5,118.833 -0.5,114.167 -0.5,109.5 Z"/></g>
<g><path style="opacity:0.988" fill="#323830" d="M 292.5,110.5 C 292.5,114.5 292.5,118.5 292.5,122.5C 290.643,125.018 288.81,125.018 287,122.5C 286.333,118.5 286.333,114.5 287,110.5C 288.828,109.248 290.661,109.248 292.5,110.5 Z"/></g>
<g><path style="opacity:0.922" fill="#323930" d="M 1.5,137.5 C 3.14387,137.286 4.64387,137.62 6,138.5C 6.93048,141.362 8.59715,143.695 11,145.5C 11.4935,147.134 11.6602,148.801 11.5,150.5C 8.95557,150.896 6.7889,150.229 5,148.5C 3.11052,145.888 1.61052,143.055 0.5,140C 0.743246,139.098 1.07658,138.265 1.5,137.5 Z"/></g>
<g><path style="opacity:0.961" fill="#323830" d="M 285.5,137.5 C 289.677,136.842 291.177,138.508 290,142.5C 288.533,145.266 286.7,147.766 284.5,150C 280.889,151.254 279.389,150.088 280,146.5C 282.483,143.861 284.316,140.861 285.5,137.5 Z"/></g>
<g><path style="opacity:0.992" fill="#323930" d="M 37.5,156.5 C 33.5,156.5 29.5,156.5 25.5,156.5C 22.9824,154.643 22.9824,152.81 25.5,151C 29.5,150.333 33.5,150.333 37.5,151C 40.0176,152.81 40.0176,154.643 37.5,156.5 Z"/></g>
<g><path style="opacity:0.958" fill="#323830" d="M 66.5,156.5 C 62.5,156.5 58.5,156.5 54.5,156.5C 52.86,155.21 52.36,153.543 53,151.5C 57.4132,150.368 61.9132,150.201 66.5,151C 67.7525,152.828 67.7525,154.661 66.5,156.5 Z"/></g>
<g><path style="opacity:0.972" fill="#323830" d="M 94.5,156.5 C 90.5,156.5 86.5,156.5 82.5,156.5C 80.5827,151.08 82.5827,149.08 88.5,150.5C 90.5,150.667 92.5,150.833 94.5,151C 97.0176,152.81 97.0176,154.643 94.5,156.5 Z"/></g>
<g><path style="opacity:0.972" fill="#323830" d="M 123.5,156.5 C 119.5,156.5 115.5,156.5 111.5,156.5C 109.86,155.21 109.36,153.543 110,151.5C 114.413,150.368 118.913,150.201 123.5,151C 124.752,152.828 124.752,154.661 123.5,156.5 Z"/></g>
<g><path style="opacity:0.975" fill="#323830" d="M 151.5,156.5 C 147.5,156.5 143.5,156.5 139.5,156.5C 137.788,151.01 139.955,149.01 146,150.5C 152.682,149.008 154.516,151.008 151.5,156.5 Z"/></g>
<g><path style="opacity:0.964" fill="#323830" d="M 180.5,156.5 C 176.5,156.5 172.5,156.5 168.5,156.5C 166.621,155.095 166.288,153.428 167.5,151.5C 171.795,150.339 176.129,150.172 180.5,151C 181.752,152.828 181.752,154.661 180.5,156.5 Z"/></g>
<g><path style="opacity:0.963" fill="#323830" d="M 208.5,156.5 C 204.5,156.5 200.5,156.5 196.5,156.5C 194.788,151.01 196.955,149.01 203,150.5C 205.424,150.53 207.757,150.863 210,151.5C 210.64,153.543 210.14,155.21 208.5,156.5 Z"/></g>
<g><path style="opacity:0.994" fill="#323830" d="M 237.5,156.5 C 233.5,156.5 229.5,156.5 225.5,156.5C 222.982,154.643 222.982,152.81 225.5,151C 229.5,150.333 233.5,150.333 237.5,151C 238.752,152.828 238.752,154.661 237.5,156.5 Z"/></g>
<g><path style="opacity:0.954" fill="#323830" d="M 266.5,156.5 C 262.167,156.5 257.833,156.5 253.5,156.5C 251.788,151.01 253.955,149.01 260,150.5C 266.045,149.01 268.212,151.01 266.5,156.5 Z"/></g>
</svg>
