<?xml version="1.0" encoding="UTF-8"?>
<!DOCTYPE svg PUBLIC "-//W3C//DTD SVG 1.1//EN" "http://www.w3.org/Graphics/SVG/1.1/DTD/svg11.dtd">
<svg xmlns="http://www.w3.org/2000/svg" version="1.1" width="343px" height="160px" style="shape-rendering:geometricPrecision; text-rendering:geometricPrecision; image-rendering:optimizeQuality; fill-rule:evenodd; clip-rule:evenodd" xmlns:xlink="http://www.w3.org/1999/xlink">
<g><path style="opacity:0.965" fill="#323830" d="M 21.5,-0.5 C 104.167,-0.5 186.833,-0.5 269.5,-0.5C 281.49,0.98384 288.99,7.65051 292,19.5C 292.5,60.832 292.667,102.165 292.5,143.5C 302.167,143.5 311.833,143.5 321.5,143.5C 321.183,140.428 321.516,137.428 322.5,134.5C 328.9,138.699 335.567,142.366 342.5,145.5C 342.5,146.167 342.5,146.833 342.5,147.5C 335.86,151.154 329.194,154.821 322.5,158.5C 321.516,155.572 321.183,152.572 321.5,149.5C 309.833,149.5 298.167,149.5 286.5,149.5C 286.667,106.165 286.5,62.8321 286,19.5C 283.83,12.161 278.996,7.66096 271.5,6C 187.5,5.33333 103.5,5.33333 19.5,6C 11.5557,8.27699 6.72241,13.4437 5,21.5C 4.50001,63.4987 4.33334,105.499 4.5,147.5C 2.83333,147.5 1.16667,147.5 -0.5,147.5C -0.5,104.167 -0.5,60.8333 -0.5,17.5C 3.565,7.42906 10.8983,1.42906 21.5,-0.5 Z"/></g>
</svg>
