<?xml version="1.0" encoding="UTF-8"?>
<!DOCTYPE svg PUBLIC "-//W3C//DTD SVG 1.1//EN" "http://www.w3.org/Graphics/SVG/1.1/DTD/svg11.dtd">
<!-- Creator: CorelDRAW 2020 (64-Bit) -->
<svg xmlns="http://www.w3.org/2000/svg" xml:space="preserve" width="210mm" height="210.007mm" version="1.1" style="shape-rendering:geometricPrecision; text-rendering:geometricPrecision; image-rendering:optimizeQuality; fill-rule:evenodd; clip-rule:evenodd"
viewBox="0 0 21000 21000.72"
 xmlns:xlink="http://www.w3.org/1999/xlink"
 xmlns:xodm="http://www.corel.com/coreldraw/odm/2003">
 <defs>
  <style type="text/css">
   <![CDATA[
    .fil16 {fill:#324896}
    .fil0 {fill:white}
    .fil2 {fill:#7AB93B;fill-rule:nonzero}
    .fil9 {fill:#22A099;fill-rule:nonzero}
    .fil1 {fill:#324896;fill-rule:nonzero}
    .fil20 {fill:white;fill-rule:nonzero}
    .fil30 {fill:url(#id0)}
    .fil8 {fill:url(#id1)}
    .fil28 {fill:url(#id2)}
    .fil4 {fill:url(#id3)}
    .fil3 {fill:url(#id4)}
    .fil22 {fill:url(#id5)}
    .fil25 {fill:url(#id6)}
    .fil18 {fill:url(#id7)}
    .fil12 {fill:url(#id8)}
    .fil24 {fill:url(#id9)}
    .fil7 {fill:url(#id10)}
    .fil26 {fill:url(#id11)}
    .fil13 {fill:url(#id12)}
    .fil11 {fill:url(#id13)}
    .fil21 {fill:url(#id14)}
    .fil19 {fill:url(#id15)}
    .fil14 {fill:url(#id16)}
    .fil27 {fill:url(#id17)}
    .fil10 {fill:url(#id18)}
    .fil23 {fill:url(#id19)}
    .fil15 {fill:url(#id20)}
    .fil6 {fill:url(#id21)}
    .fil5 {fill:url(#id22)}
    .fil29 {fill:url(#id23);fill-rule:nonzero}
    .fil17 {fill:url(#id24);fill-rule:nonzero}
   ]]>
  </style>
  <linearGradient id="id0" gradientUnits="userSpaceOnUse" x1="79696.44" y1="1425.72" x2="70350.03" y2="6821.87">
   <stop offset="0" style="stop-opacity:1; stop-color:#324896"/>
   <stop offset="0.478431" style="stop-opacity:1; stop-color:#22A099"/>
   <stop offset="1" style="stop-opacity:1; stop-color:#7AB93B"/>
  </linearGradient>
  <linearGradient id="id1" gradientUnits="userSpaceOnUse" x1="31228.29" y1="7974.64" x2="39671.18" y2="5712.39">
   <stop offset="0" style="stop-opacity:1; stop-color:#324896"/>
   <stop offset="0.45098" style="stop-opacity:1; stop-color:#22A099"/>
   <stop offset="1" style="stop-opacity:1; stop-color:#7AB93B"/>
  </linearGradient>
  <linearGradient id="id2" gradientUnits="userSpaceOnUse" xlink:href="#id1" x1="57477.94" y1="2377.01" x2="60697.43" y2="1514.36">
  </linearGradient>
  <linearGradient id="id3" gradientUnits="objectBoundingBox" xlink:href="#id1" x1="0%" y1="55.1411%" x2="218.077%" y2="0%">
  </linearGradient>
  <linearGradient id="id4" gradientUnits="userSpaceOnUse" xlink:href="#id1" x1="31228.24" y1="7974.67" x2="39671.21" y2="5712.38">
  </linearGradient>
  <linearGradient id="id5" gradientUnits="userSpaceOnUse" xlink:href="#id1" x1="57858.59" y1="7974.67" x2="66301.57" y2="5712.38">
  </linearGradient>
  <linearGradient id="id6" gradientUnits="userSpaceOnUse" xlink:href="#id1" x1="57477.9" y1="2377.04" x2="60697.47" y2="1514.35">
  </linearGradient>
  <linearGradient id="id7" gradientUnits="userSpaceOnUse" xlink:href="#id0" x1="53066.09" y1="1425.72" x2="43719.68" y2="6821.87">
  </linearGradient>
  <linearGradient id="id8" gradientUnits="userSpaceOnUse" xlink:href="#id1" x1="30847.55" y1="2377.04" x2="34067.11" y2="1514.36">
  </linearGradient>
  <linearGradient id="id9" gradientUnits="userSpaceOnUse" xlink:href="#id1" x1="57858.64" y1="7974.64" x2="66301.53" y2="5712.39">
  </linearGradient>
  <linearGradient id="id10" gradientUnits="objectBoundingBox" xlink:href="#id1" x1="0%" y1="305.978%" x2="591.193%" y2="136.745%">
  </linearGradient>
  <linearGradient id="id11" gradientUnits="userSpaceOnUse" xlink:href="#id1" x1="57477.9" y1="2377.04" x2="60697.46" y2="1514.36">
  </linearGradient>
  <linearGradient id="id12" gradientUnits="userSpaceOnUse" xlink:href="#id1" x1="30847.5" y1="2377.05" x2="34067.13" y2="1514.34">
  </linearGradient>
  <linearGradient id="id13" gradientUnits="objectBoundingBox" xlink:href="#id1" x1="0%" y1="55.1366%" x2="218.078%" y2="0%">
  </linearGradient>
  <linearGradient id="id14" gradientUnits="userSpaceOnUse" xlink:href="#id1" x1="57858.59" y1="7974.67" x2="66301.56" y2="5712.38">
  </linearGradient>
  <linearGradient id="id15" gradientUnits="objectBoundingBox" xlink:href="#id1" x1="0%" y1="0%" x2="128.991%" y2="123.239%">
  </linearGradient>
  <linearGradient id="id16" gradientUnits="objectBoundingBox" xlink:href="#id1" x1="0%" y1="305.978%" x2="591.195%" y2="136.742%">
  </linearGradient>
  <linearGradient id="id17" gradientUnits="userSpaceOnUse" xlink:href="#id1" x1="57477.85" y1="2377.05" x2="60697.48" y2="1514.34">
  </linearGradient>
  <linearGradient id="id18" gradientUnits="userSpaceOnUse" xlink:href="#id1" x1="30847.55" y1="2377.04" x2="34067.12" y2="1514.35">
  </linearGradient>
  <linearGradient id="id19" gradientUnits="userSpaceOnUse" xlink:href="#id1" x1="57858.59" y1="7974.67" x2="66301.56" y2="5712.38">
  </linearGradient>
  <linearGradient id="id20" gradientUnits="userSpaceOnUse" xlink:href="#id1" x1="30847.59" y1="2377.01" x2="34067.08" y2="1514.36">
  </linearGradient>
  <linearGradient id="id21" gradientUnits="userSpaceOnUse" xlink:href="#id1" x1="31228.24" y1="7974.67" x2="39671.21" y2="5712.38">
  </linearGradient>
  <linearGradient id="id22" gradientUnits="userSpaceOnUse" xlink:href="#id1" x1="31228.24" y1="7974.67" x2="39671.22" y2="5712.38">
  </linearGradient>
  <linearGradient id="id23" gradientUnits="userSpaceOnUse" xlink:href="#id0" x1="76177.54" y1="3926.44" x2="73758.62" y2="8655.36">
  </linearGradient>
  <linearGradient id="id24" gradientUnits="userSpaceOnUse" xlink:href="#id0" x1="49907.63" y1="3667.14" x2="46798.09" y2="8890.4">
  </linearGradient>
 </defs>
 <g id="Layer_x0020_1">
  <metadata id="CorelCorpID_0Corel-Layer"/>
  <path class="fil0" d="M28441.32 105.79l13243.06 0c213.16,0 387.56,174.4 387.56,387.56l0 13243.06c0,213.16 -174.4,387.55 -387.56,387.55l-13243.06 0c-213.16,0 -387.55,-174.39 -387.55,-387.55l0 -13243.06c0,-213.16 174.39,-387.56 387.55,-387.56z"/>
  <g id="_3066384346896">
   <g>
    <path class="fil1" d="M32720.47 10271.3c-102.05,49.36 -235.78,74.03 -400.52,74.03 -214.77,0 -383.85,-63.03 -506.91,-189.42 -123.39,-126.39 -184.75,-294.8 -184.75,-505.24 0,-224.1 69.03,-405.86 207.43,-545.26 138.4,-139.4 318.15,-209.1 538.92,-209.1 136.73,0 252.12,17.35 345.83,52.03l0 303.81c-93.71,-56.03 -200.43,-84.04 -320.48,-84.04 -131.4,0 -237.78,41.35 -318.49,124.06 -80.7,82.7 -121.05,194.76 -121.05,336.16 0,135.4 38.01,243.45 114.38,323.82 76.04,80.37 178.75,120.72 307.82,120.72 123.05,0 235.77,-30.01 337.82,-90.04l0 288.47zm992.33 49.69l-292.14 0 0 -143.73 -4 0c-67.04,112.05 -166.42,168.07 -298.15,168.07 -97.04,0 -173.41,-27.34 -229.1,-82.37 -55.7,-55.02 -83.38,-128.73 -83.38,-220.44 0,-194.09 115.06,-306.14 344.83,-336.16l271.8 -36.01c0,-109.39 -59.36,-164.08 -178.09,-164.08 -119.05,0 -232.44,35.35 -339.82,106.38l0 -232.44c43.02,-22.34 101.71,-41.69 176.41,-58.69 74.37,-17.01 142.4,-25.35 203.77,-25.35 285.13,0 427.87,142.4 427.87,426.87l0 597.95zm-290.14 -406.53l0 -67.36 -181.75 23.34c-100.38,13.01 -150.41,58.36 -150.41,136.07 0,35.01 12.01,64.03 36.35,86.37 24.68,22.35 57.7,33.68 99.38,33.68 58.03,0 105.05,-20.01 141.74,-60.02 36.35,-40.02 54.69,-90.71 54.69,-152.08zm1133.05 -315.48c-37.35,-20.34 -80.7,-30.35 -130.06,-30.35 -67.03,0 -119.39,24.68 -157.4,73.7 -37.69,49.36 -56.7,116.06 -56.7,200.77l0 477.89 -308.48 0 0 -1000.47 308.48 0 0 185.75 4 0c49.03,-135.73 136.74,-203.43 263.8,-203.43 32.68,0 58.02,4 76.36,11.67l0 284.47z"/>
    <path class="fil2" d="M35543.04 9838.43l0 482.56 -315.81 0 0 -1401 494.56 0c353.17,0 529.59,148.74 529.59,446.55 0,140.73 -50.69,254.45 -152.07,341.49 -101.38,86.71 -236.45,130.4 -405.86,130.4l-150.41 0zm0 -676.32l0 436.87 124.06 0c168.08,0 252.12,-73.7 252.12,-220.77 0,-144.07 -84.04,-216.1 -252.12,-216.1l-124.06 0zm1596.95 1158.88l-292.14 0 0 -143.73 -4 0c-67.04,112.05 -166.42,168.07 -298.15,168.07 -97.04,0 -173.41,-27.34 -229.1,-82.37 -55.7,-55.02 -83.38,-128.73 -83.38,-220.44 0,-194.09 115.06,-306.14 344.83,-336.16l271.8 -36.01c0,-109.39 -59.36,-164.08 -178.09,-164.08 -119.05,0 -232.44,35.35 -339.82,106.38l0 -232.44c43.02,-22.34 101.71,-41.69 176.41,-58.69 74.37,-17.01 142.4,-25.35 203.77,-25.35 285.13,0 427.87,142.4 427.87,426.87l0 597.95zm-290.14 -406.53l0 -67.36 -181.75 23.34c-100.38,13.01 -150.41,58.36 -150.41,136.07 0,35.01 12.01,64.03 36.35,86.37 24.68,22.35 57.7,33.68 99.38,33.68 58.03,0 105.05,-20.01 141.74,-60.02 36.35,-40.02 54.69,-90.71 54.69,-152.08zm636.49 -752.35c-52.03,0 -94.72,-15.34 -127.73,-46.36 -33.35,-31.01 -50.03,-68.7 -50.03,-113.72 0,-46.35 16.68,-84.04 50.03,-113.39 33.01,-29.34 75.7,-44.02 127.73,-44.02 53.02,0 95.71,14.68 128.72,44.02 32.69,29.35 49.36,67.04 49.36,113.39 0,46.69 -16.67,85.37 -49.36,115.39 -33.01,29.68 -75.7,44.69 -128.72,44.69zm152.4 1158.88l-308.48 0 0 -1000.47 308.48 0 0 1000.47zm858.59 -722.01c-37.35,-20.34 -80.7,-30.35 -130.06,-30.35 -67.03,0 -119.39,24.68 -157.4,73.7 -37.69,49.36 -56.7,116.06 -56.7,200.77l0 477.89 -308.48 0 0 -1000.47 308.48 0 0 185.75 4 0c49.03,-135.73 136.74,-203.43 263.8,-203.43 32.68,0 58.02,4 76.36,11.67l0 284.47z"/>
   </g>
   <g>
    <path class="fil3" d="M32299.97 8108.21c-23.74,-129.42 -28.12,-158.13 -18.93,-297 -199.89,-2.27 -255.31,-39.33 -277.45,-234.34 -66.52,-585.96 175.95,-532.57 925.54,-645.7 840.11,-126.8 1298.8,-219.48 1992.59,-617.07 116.26,-66.63 214.4,-139.33 321.58,-205.89 285.68,-177.43 438.3,-200.13 835.42,-215.68 306.17,-11.99 684.51,-5.88 969.43,66.33 282.27,71.55 397,298.86 488.48,569.17 -584.1,-25.97 -1383.82,-202.71 -1936.78,-400.06 -69.73,-24.88 -147.94,32.72 -250.92,99.29 -68.15,44.06 -173.5,101.82 -236.45,149.56 85.71,86.08 677.34,279.25 846.52,324.57 301.62,80.8 676.24,152.24 995.17,199.06 358.75,52.66 1060.45,70.63 1146.83,323.1 26.8,78.3 28.86,187.72 25.99,274.94 -7.88,240.69 -32.52,300.43 -259.88,313.2 4.89,34.25 7.48,69.25 7.48,104.86 0,67.5 -9.16,132.87 -26.19,194.96 526.75,0.56 755.55,81.16 803.4,-500.17 40.19,-488.32 10.89,-858.12 -467.78,-983.72 -75.36,-19.78 -66.95,-2.66 -96.82,-69.25 -34.18,-76.24 -65.49,-155.76 -104.32,-229.2 -113.28,-214.24 -86.76,-212.25 -248.33,-418.26 -368.28,-469.57 -1661.29,-471.14 -2186.29,-373.1 -610.93,114.07 -798.51,516.93 -1834.37,804.26 -310.24,86.05 -800.9,163.86 -1136.25,189.44 174.23,-526.91 367.52,-607.19 984.77,-637.51 261.85,-12.87 510.06,-7.66 768.56,19.87 98.75,10.52 79.46,6.17 153.34,-37.28l262.71 -153.88c59.06,-35.34 90.08,-43.9 123.72,-88.23 -400.57,-184.8 -1097.78,-164.15 -1573.63,-110.09 -593.88,67.46 -877,242.01 -1091.31,656.16 -49.38,95.42 -92.73,194.54 -138.66,291.84 -100.99,213.9 -13.89,95.92 -248.13,195.71 -231.54,98.64 -313.55,220.8 -346.68,530.64 -23.8,222.61 -16.77,598.88 92.36,772.23 65.49,104.02 147.19,121.93 294.22,135.36 117.53,10.73 324.9,13.75 441.06,1.88z"/>
    <path class="fil4" d="M33701.48 8110.9l2737.44 -1.26c-21.09,-123.31 -18.66,-175.61 -20.17,-302.44l-2699.07 2.01c5.14,35.05 7.83,70.87 7.83,107.34 0,67.28 -9.1,132.44 -26.03,194.35z"/>
    <path class="fil5" d="M32992.42 7369.95c301.88,0 546.6,244.73 546.6,546.6 0,301.87 -244.72,546.59 -546.6,546.59 -301.87,0 -546.59,-244.72 -546.59,-546.59 0,-301.87 244.72,-546.6 546.59,-546.6zm0 278.78c147.92,0 267.82,119.9 267.82,267.82 0,147.91 -119.9,267.82 -267.82,267.82 -147.91,0 -267.82,-119.91 -267.82,-267.82 0,-147.92 119.91,-267.82 267.82,-267.82z"/>
    <path class="fil6" d="M37139.5 7369.95c301.88,0 546.6,244.73 546.6,546.6 0,301.87 -244.72,546.59 -546.6,546.59 -301.87,0 -546.59,-244.72 -546.59,-546.59 0,-301.87 244.72,-546.6 546.59,-546.6zm0 278.78c147.92,0 267.82,119.9 267.82,267.82 0,147.91 -119.9,267.82 -267.82,267.82 -147.91,0 -267.82,-119.91 -267.82,-267.82 0,-147.92 119.91,-267.82 267.82,-267.82z"/>
    <path class="fil7" d="M33984.09 3884.41c-290.19,0 -525.43,235.24 -525.43,525.43 0,129.55 47.1,247.94 124.82,339.55l400.61 471.8 400.58 -471.81c77.73,-91.6 124.83,-210.01 124.83,-339.56 0.01,-290.17 -235.23,-525.41 -525.41,-525.41zm0 723.42c-119.35,0 -216.08,-96.74 -216.08,-216.08 0,-119.35 96.73,-216.09 216.08,-216.09 119.34,0 216.08,96.74 216.08,216.09 0,119.34 -96.74,216.08 -216.08,216.08z"/>
    <path class="fil8" d="M36108.97 3884.41c-290.18,0 -525.43,235.24 -525.43,525.43 0,129.55 47.1,247.94 124.83,339.55l400.6 471.8 400.59 -471.81c77.72,-91.6 124.82,-210.01 124.82,-339.56 0.02,-290.17 -235.23,-525.41 -525.41,-525.41zm0 723.42c-119.34,0 -216.08,-96.74 -216.08,-216.08 0,-119.35 96.74,-216.09 216.08,-216.09 119.34,0 216.08,96.74 216.08,216.09 0,119.34 -96.74,216.08 -216.08,216.08z"/>
   </g>
  </g>
  <g id="_3066384344592">
   <g>
    <g>
     <path class="fil1" d="M35364.23 2385.92c-67.57,32.68 -156.12,49.02 -265.2,49.02 -142.21,0 -254.17,-41.74 -335.65,-125.43 -81.7,-83.69 -122.33,-195.2 -122.33,-334.54 0,-148.39 45.71,-268.74 137.35,-361.04 91.64,-92.3 210.66,-138.45 356.84,-138.45 90.54,0 166.94,11.48 228.99,34.44l0 201.17c-62.05,-37.1 -132.71,-55.64 -212.2,-55.64 -87.01,0 -157.45,27.38 -210.89,82.14 -53.44,54.76 -80.16,128.96 -80.16,222.59 0,89.65 25.18,161.2 75.75,214.41 50.34,53.22 118.36,79.94 203.81,79.94 81.49,0 156.12,-19.87 223.69,-59.62l0 191.01zm657.07 32.9l-193.44 0 0 -95.17 -2.65 0c-44.39,74.19 -110.19,111.29 -197.41,111.29 -64.26,0 -114.83,-18.11 -151.71,-54.54 -36.88,-36.44 -55.2,-85.24 -55.2,-145.96 0,-128.52 76.18,-202.72 228.32,-222.59l179.97 -23.85c0,-72.43 -39.3,-108.64 -117.91,-108.64 -78.84,0 -153.92,23.4 -225.02,70.44l0 -153.91c28.49,-14.8 67.35,-27.61 116.81,-38.87 49.25,-11.26 94.29,-16.78 134.92,-16.78 188.81,0 283.32,94.29 283.32,282.65l0 395.93zm-192.12 -269.18l0 -44.61 -120.34 15.46c-66.47,8.61 -99.59,38.65 -99.59,90.1 0,23.18 7.95,42.39 24.07,57.19 16.34,14.79 38.2,22.3 65.8,22.3 38.42,0 69.56,-13.25 93.85,-39.75 24.07,-26.49 36.21,-60.06 36.21,-100.69zm750.25 -208.9c-24.73,-13.47 -53.43,-20.09 -86.12,-20.09 -44.38,0 -79.05,16.34 -104.22,48.8 -24.95,32.68 -37.54,76.85 -37.54,132.93l0 316.44 -204.26 0 0 -662.46 204.26 0 0 123 2.65 0c32.46,-89.88 90.53,-134.7 174.67,-134.7 21.64,0 38.42,2.65 50.56,7.73l0 188.35z"/>
     <path class="fil2" d="M37233.19 2099.29l0 319.53 -209.12 0 0 -927.66 327.48 0c233.85,0 350.66,98.48 350.66,295.67 0,93.19 -33.56,168.49 -100.69,226.12 -67.13,57.42 -156.56,86.34 -268.74,86.34l-99.59 0zm0 -447.82l0 289.27 82.15 0c111.29,0 166.94,-48.8 166.94,-146.18 0,-95.39 -55.65,-143.09 -166.94,-143.09l-82.15 0zm1057.41 767.35l-193.44 0 0 -95.17 -2.65 0c-44.39,74.19 -110.19,111.29 -197.41,111.29 -64.26,0 -114.83,-18.11 -151.71,-54.54 -36.88,-36.44 -55.2,-85.24 -55.2,-145.96 0,-128.52 76.18,-202.72 228.32,-222.59l179.97 -23.85c0,-72.43 -39.3,-108.64 -117.91,-108.64 -78.84,0 -153.92,23.4 -225.02,70.44l0 -153.91c28.49,-14.8 67.35,-27.61 116.81,-38.87 49.25,-11.26 94.29,-16.78 134.92,-16.78 188.81,0 283.32,94.29 283.32,282.65l0 395.93zm-192.12 -269.18l0 -44.61 -120.34 15.46c-66.47,8.61 -99.59,38.65 -99.59,90.1 0,23.18 7.95,42.39 24.07,57.19 16.34,14.79 38.2,22.3 65.8,22.3 38.42,0 69.56,-13.25 93.85,-39.75 24.07,-26.49 36.21,-60.06 36.21,-100.69zm421.45 -498.17c-34.44,0 -62.71,-10.16 -84.57,-30.69 -22.08,-20.54 -33.12,-45.49 -33.12,-75.3 0,-30.7 11.04,-55.65 33.12,-75.08 21.86,-19.43 50.13,-29.15 84.57,-29.15 35.11,0 63.38,9.72 85.24,29.15 21.64,19.43 32.68,44.38 32.68,75.08 0,30.91 -11.04,56.53 -32.68,76.4 -21.86,19.65 -50.13,29.59 -85.24,29.59zm100.92 767.35l-204.26 0 0 -662.46 204.26 0 0 662.46zm568.51 -478.08c-24.73,-13.47 -53.43,-20.09 -86.12,-20.09 -44.38,0 -79.05,16.34 -104.22,48.8 -24.95,32.68 -37.54,76.85 -37.54,132.93l0 316.44 -204.26 0 0 -662.46 204.26 0 0 123 2.65 0c32.46,-89.88 90.53,-134.7 174.67,-134.7 21.64,0 38.42,2.65 50.56,7.73l0 188.35z"/>
    </g>
    <polygon class="fil9" points="34268.16,1504.09 34268.16,2418.82 34223.76,2418.82 34223.76,1504.09 "/>
   </g>
   <g>
    <path class="fil10" d="M31256.23 2427.96c-9.05,-49.35 -10.72,-60.3 -7.22,-113.26 -76.22,-0.86 -97.36,-14.99 -105.8,-89.36 -25.37,-223.44 67.1,-203.08 352.94,-246.22 320.36,-48.35 495.27,-83.7 759.84,-235.31 44.33,-25.41 81.76,-53.13 122.63,-78.51 108.94,-67.66 167.13,-76.32 318.57,-82.25 116.75,-4.57 261.02,-2.24 369.67,25.3 107.64,27.28 151.39,113.96 186.28,217.04 -222.74,-9.9 -527.7,-77.3 -738.56,-152.56 -26.59,-9.49 -56.41,12.48 -95.68,37.87 -25.99,16.8 -66.17,38.82 -90.17,57.03 32.68,32.82 258.29,106.48 322.8,123.76 115.02,30.82 257.88,58.06 379.5,75.91 136.8,20.09 404.38,26.94 437.32,123.21 10.22,29.86 11,71.58 9.91,104.84 -3.01,91.79 -12.4,114.57 -99.1,119.44 1.86,13.06 2.85,26.41 2.85,39.98 0,25.75 -3.49,50.67 -9.99,74.35 200.87,0.21 288.12,30.95 306.37,-190.73 15.32,-186.21 4.15,-327.23 -178.38,-375.13 -28.74,-7.54 -25.53,-1.01 -36.92,-26.4 -13.04,-29.07 -24.98,-59.4 -39.78,-87.41 -43.2,-81.69 -33.09,-80.93 -94.7,-159.49 -140.44,-179.06 -633.5,-179.66 -833.7,-142.28 -232.97,43.5 -304.5,197.13 -699.51,306.69 -118.3,32.82 -305.4,62.49 -433.28,72.24 66.43,-200.92 140.14,-231.54 375.52,-243.1 99.85,-4.9 194.5,-2.92 293.07,7.58 37.66,4.01 30.31,2.35 58.48,-14.22l100.18 -58.68c22.52,-13.47 34.35,-16.74 47.18,-33.64 -152.75,-70.47 -418.62,-62.6 -600.08,-41.98 -226.46,25.72 -334.42,92.28 -416.15,250.21 -18.83,36.39 -35.36,74.19 -52.88,111.29 -38.5,81.57 -5.29,36.58 -94.61,74.63 -88.3,37.61 -119.57,84.2 -132.2,202.35 -9.08,84.89 -6.4,228.37 35.22,294.48 24.97,39.66 56.12,46.49 112.19,51.61 44.82,4.09 123.9,5.25 168.19,0.72z"/>
    <path class="fil11" d="M31790.67 2428.99l1043.87 -0.49c-8.04,-47.02 -7.11,-66.96 -7.69,-115.32l-1029.24 0.76c1.96,13.37 2.99,27.03 2.99,40.93 0,25.66 -3.47,50.51 -9.93,74.12z"/>
    <path class="fil12" d="M31520.29 2146.44c115.11,0 208.43,93.32 208.43,208.43 0,115.12 -93.32,208.44 -208.43,208.44 -115.12,0 -208.44,-93.32 -208.44,-208.44 0,-115.11 93.32,-208.43 208.44,-208.43zm0 106.3c56.4,0 102.12,45.73 102.12,102.13 0,56.41 -45.72,102.13 -102.12,102.13 -56.41,0 -102.13,-45.72 -102.13,-102.13 0,-56.4 45.72,-102.13 102.13,-102.13z"/>
    <path class="fil13" d="M33101.7 2146.44c115.11,0 208.43,93.32 208.43,208.43 0,115.12 -93.32,208.44 -208.43,208.44 -115.11,0 -208.43,-93.32 -208.43,-208.44 0,-115.11 93.32,-208.43 208.43,-208.43zm0 106.3c56.4,0 102.13,45.73 102.13,102.13 0,56.41 -45.73,102.13 -102.13,102.13 -56.4,0 -102.13,-45.72 -102.13,-102.13 0,-56.4 45.73,-102.13 102.13,-102.13z"/>
    <path class="fil14" d="M31898.44 817.29c-110.66,0 -200.36,89.71 -200.36,200.36 0,49.4 17.96,94.55 47.6,129.49l152.76 179.91 152.76 -179.92c29.63,-34.93 47.6,-80.08 47.6,-129.48 0,-110.65 -89.71,-200.36 -200.36,-200.36zm0 275.86c-45.51,0 -82.4,-36.89 -82.4,-82.4 0,-45.51 36.89,-82.4 82.4,-82.4 45.51,0 82.4,36.89 82.4,82.4 0,45.51 -36.89,82.4 -82.4,82.4z"/>
    <path class="fil15" d="M32708.72 817.29c-110.65,0 -200.36,89.71 -200.36,200.36 0,49.4 17.96,94.55 47.6,129.49l152.76 179.91 152.76 -179.92c29.64,-34.93 47.6,-80.08 47.6,-129.48 0.01,-110.65 -89.7,-200.36 -200.36,-200.36zm0 275.86c-45.51,0 -82.39,-36.89 -82.39,-82.4 0,-45.51 36.89,-82.4 82.39,-82.4 45.51,0 82.4,36.89 82.4,82.4 0,45.51 -36.89,82.4 -82.4,82.4z"/>
   </g>
  </g>
  <g id="_3066384340848">
   <polygon class="fil16" points="43458.63,857.59 51604.56,857.59 51604.56,9003.52 43458.63,9003.52 "/>
   <path class="fil17" d="M46176.99 6755.92c-59.01,28.55 -136.35,42.82 -231.62,42.82 -124.2,0 -221.98,-36.45 -293.15,-109.54 -71.35,-73.1 -106.84,-170.49 -106.84,-292.19 0,-129.6 39.92,-234.7 119.96,-315.32 80.03,-80.61 183.98,-120.92 311.66,-120.92 79.07,0 145.8,10.03 199.99,30.09l0 175.69c-54.19,-32.4 -115.91,-48.6 -185.34,-48.6 -75.98,0 -137.5,23.91 -184.18,71.74 -46.67,47.83 -70,112.63 -70,194.4 0,78.3 21.98,140.79 66.15,187.27 43.97,46.48 103.37,69.81 178.01,69.81 71.16,0 136.35,-17.35 195.36,-52.07l0 166.82zm573.86 28.74l-168.94 0 0 -83.12 -2.32 0c-38.76,64.8 -96.24,97.2 -172.41,97.2 -56.13,0 -100.29,-15.82 -132.5,-47.64 -32.21,-31.82 -48.21,-74.44 -48.21,-127.48 0,-112.24 66.53,-177.04 199.41,-194.4l157.18 -20.83c0,-63.25 -34.33,-94.88 -102.98,-94.88 -68.85,0 -134.43,20.44 -196.53,61.52l0 -134.42c24.88,-12.92 58.83,-24.11 102.03,-33.95 43,-9.83 82.35,-14.65 117.83,-14.65 164.9,0 247.44,82.35 247.44,246.86l0 345.79zm-167.79 -235.09l0 -38.96 -105.11 13.5c-58.05,7.52 -86.97,33.75 -86.97,78.68 0,20.25 6.94,37.03 21.02,49.95 14.27,12.93 33.36,19.48 57.47,19.48 33.56,0 60.75,-11.57 81.96,-34.71 21.03,-23.14 31.63,-52.46 31.63,-87.94zm655.25 -182.45c-21.6,-11.76 -46.67,-17.55 -75.22,-17.55 -38.76,0 -69.04,14.27 -91.03,42.62 -21.79,28.55 -32.78,67.12 -32.78,116.1l0 276.37 -178.4 0 0 -578.57 178.4 0 0 107.42 2.31 0c28.35,-78.5 79.07,-117.65 152.55,-117.65 18.9,0 33.56,2.32 44.17,6.75l0 164.51zm570.97 138.47l0 279.07 -182.64 0 0 -810.2 286.01 0c204.24,0 306.26,86.02 306.26,258.24 0,81.39 -29.31,147.15 -87.94,197.49 -58.63,50.14 -136.74,75.4 -234.71,75.4l-86.98 0zm0 -391.11l0 252.64 71.74 0c97.2,0 145.8,-42.62 145.8,-127.67 0,-83.32 -48.6,-124.97 -145.8,-124.97l-71.74 0zm923.51 670.18l-168.94 0 0 -83.12 -2.32 0c-38.76,64.8 -96.24,97.2 -172.41,97.2 -56.13,0 -100.29,-15.82 -132.5,-47.64 -32.21,-31.82 -48.21,-74.44 -48.21,-127.48 0,-112.24 66.53,-177.04 199.41,-194.4l157.18 -20.83c0,-63.25 -34.33,-94.88 -102.98,-94.88 -68.85,0 -134.43,20.44 -196.53,61.52l0 -134.42c24.88,-12.92 58.83,-24.11 102.03,-33.95 43,-9.83 82.35,-14.65 117.83,-14.65 164.9,0 247.44,82.35 247.44,246.86l0 345.79zm-167.79 -235.09l0 -38.96 -105.11 13.5c-58.05,7.52 -86.97,33.75 -86.97,78.68 0,20.25 6.94,37.03 21.02,49.95 14.27,12.93 33.36,19.48 57.47,19.48 33.56,0 60.75,-11.57 81.96,-34.71 21.03,-23.14 31.63,-52.46 31.63,-87.94zm368.08 -435.09c-30.08,0 -54.77,-8.87 -73.86,-26.81 -19.29,-17.94 -28.93,-39.73 -28.93,-65.76 0,-26.81 9.64,-48.6 28.93,-65.58 19.09,-16.97 43.78,-25.45 73.86,-25.45 30.67,0 55.35,8.48 74.45,25.45 18.9,16.98 28.54,38.77 28.54,65.58 0,27 -9.64,49.37 -28.54,66.72 -19.1,17.17 -43.78,25.85 -74.45,25.85zm88.14 670.18l-178.4 0 0 -578.57 178.4 0 0 578.57zm496.52 -417.54c-21.6,-11.76 -46.67,-17.55 -75.22,-17.55 -38.76,0 -69.04,14.27 -91.03,42.62 -21.79,28.55 -32.78,67.12 -32.78,116.1l0 276.37 -178.4 0 0 -578.57 178.4 0 0 107.42 2.31 0c28.35,-78.5 79.07,-117.65 152.55,-117.65 18.9,0 33.56,2.32 44.17,6.75l0 164.51z"/>
   <path class="fil18" d="M45933.81 5505.01c-13.73,-74.85 -16.26,-91.45 -10.95,-171.76 -115.59,-1.31 -147.65,-22.75 -160.45,-135.52 -38.47,-338.85 101.76,-307.98 535.25,-373.41 485.83,-73.33 751.09,-126.93 1152.32,-356.85 67.23,-38.53 123.98,-80.58 185.97,-119.07 165.21,-102.61 253.47,-115.74 483.12,-124.73 177.06,-6.93 395.86,-3.4 560.63,38.36 163.23,41.38 229.58,172.83 282.49,329.15 -337.79,-15.01 -800.27,-117.22 -1120.05,-231.35 -40.32,-14.39 -85.55,18.92 -145.11,57.42 -39.41,25.47 -100.33,58.88 -136.74,86.49 49.57,49.78 391.72,161.49 489.55,187.7 174.42,46.72 391.07,88.04 575.51,115.11 207.46,30.46 613.26,40.85 663.21,186.85 15.5,45.29 16.69,108.56 15.03,159 -4.55,139.19 -18.8,173.74 -150.29,181.13 2.84,19.81 4.33,40.04 4.33,60.64 0,39.04 -5.29,76.83 -15.15,112.75 304.63,0.32 436.94,46.93 464.61,-289.26 23.24,-282.39 6.3,-496.24 -270.52,-568.88 -43.58,-11.44 -38.72,-1.54 -55.99,-40.05 -19.77,-44.09 -37.87,-90.08 -60.33,-132.55 -65.51,-123.89 -50.17,-122.74 -143.6,-241.88 -212.99,-271.56 -960.74,-272.46 -1264.34,-215.77 -353.3,65.98 -461.78,298.95 -1060.82,465.11 -179.41,49.76 -463.16,94.77 -657.11,109.55 100.77,-304.71 212.55,-351.13 569.5,-368.67 151.43,-7.44 294.97,-4.42 444.46,11.49 57.11,6.09 45.96,3.58 88.68,-21.55l151.93 -88.99c34.15,-20.44 52.09,-25.39 71.54,-51.03 -231.64,-106.87 -634.84,-94.93 -910.03,-63.67 -343.44,39.01 -507.17,139.96 -631.11,379.47 -28.55,55.18 -53.62,112.5 -80.19,168.77 -58.39,123.7 -8.03,55.47 -143.49,113.18 -133.9,57.04 -181.33,127.68 -200.48,306.87 -13.77,128.73 -9.7,346.33 53.41,446.58 37.86,60.15 85.12,70.51 170.14,78.29 67.97,6.19 187.9,7.94 255.07,1.08zm2202.76 -2442.64c-167.82,0 -303.86,136.04 -303.86,303.86 0,74.91 27.24,143.38 72.19,196.36l231.67 272.85 231.66 -272.86c44.95,-52.97 72.18,-121.44 72.18,-196.36 0.01,-167.81 -136.03,-303.85 -303.84,-303.85zm0 418.35c-69.02,0 -124.97,-55.94 -124.97,-124.95 0,-69.02 55.95,-124.97 124.97,-124.97 69.01,0 124.95,55.95 124.95,124.97 0,69.02 -55.94,124.95 -124.95,124.95zm-1228.83 -418.35c-167.81,0 -303.86,136.04 -303.86,303.86 0,74.91 27.24,143.38 72.2,196.36l231.66 272.85 231.66 -272.86c44.95,-52.97 72.19,-121.44 72.19,-196.36 0.01,-167.81 -136.04,-303.85 -303.85,-303.85zm0 418.35c-69.01,0 -124.96,-55.94 -124.96,-124.95 0,-69.02 55.95,-124.97 124.96,-124.97 69.01,0 124.96,55.95 124.96,124.97 0,69.02 -55.95,124.95 -124.96,124.95zm1824.79 1597.35c174.57,0 316.09,141.53 316.09,316.1 0,174.57 -141.52,316.1 -316.09,316.1 -174.58,0 -316.1,-141.53 -316.1,-316.1 0,-174.57 141.52,-316.1 316.1,-316.1zm0 161.21c85.54,0 154.88,69.35 154.88,154.89 0,85.53 -69.34,154.88 -154.88,154.88 -85.54,0 -154.88,-69.35 -154.88,-154.88 0,-85.54 69.34,-154.89 154.88,-154.89zm-2398.27 -161.21c174.58,0 316.1,141.53 316.1,316.1 0,174.57 -141.52,316.1 -316.1,316.1 -174.57,0 -316.1,-141.53 -316.1,-316.1 0,-174.57 141.53,-316.1 316.1,-316.1zm0 161.21c85.54,0 154.88,69.35 154.88,154.89 0,85.53 -69.34,154.88 -154.88,154.88 -85.54,0 -154.88,-69.35 -154.88,-154.88 0,-85.54 69.34,-154.89 154.88,-154.89zm410.05 267.28l1583.06 -0.73c-12.19,-71.31 -10.79,-101.55 -11.65,-174.9l-1560.88 1.16c2.97,20.27 4.52,40.99 4.52,62.08 0,38.91 -5.25,76.59 -15.05,112.39z"/>
  </g>
  <g id="_3066384341760">
   <polygon class="fil19" points="43458.63,9724.64 51604.56,9724.64 51604.56,17870.57 43458.63,17870.57 "/>
   <path class="fil20" d="M46176.99 15622.97c-59.01,28.55 -136.35,42.82 -231.62,42.82 -124.2,0 -221.98,-36.45 -293.15,-109.54 -71.35,-73.1 -106.84,-170.49 -106.84,-292.19 0,-129.6 39.92,-234.7 119.96,-315.32 80.03,-80.61 183.98,-120.92 311.66,-120.92 79.07,0 145.8,10.03 199.99,30.09l0 175.69c-54.19,-32.4 -115.91,-48.6 -185.34,-48.6 -75.98,0 -137.5,23.91 -184.18,71.74 -46.67,47.83 -70,112.63 -70,194.4 0,78.3 21.98,140.79 66.15,187.27 43.97,46.48 103.37,69.81 178.01,69.81 71.16,0 136.35,-17.35 195.36,-52.07l0 166.82zm573.86 28.74l-168.94 0 0 -83.12 -2.32 0c-38.76,64.8 -96.24,97.2 -172.41,97.2 -56.13,0 -100.29,-15.82 -132.5,-47.64 -32.21,-31.82 -48.21,-74.44 -48.21,-127.48 0,-112.24 66.53,-177.04 199.41,-194.4l157.18 -20.83c0,-63.25 -34.33,-94.88 -102.98,-94.88 -68.85,0 -134.43,20.44 -196.53,61.52l0 -134.42c24.88,-12.92 58.83,-24.11 102.03,-33.95 43,-9.83 82.35,-14.65 117.83,-14.65 164.9,0 247.44,82.35 247.44,246.86l0 345.79zm-167.79 -235.09l0 -38.96 -105.11 13.5c-58.05,7.52 -86.97,33.75 -86.97,78.68 0,20.25 6.94,37.03 21.02,49.95 14.27,12.93 33.36,19.48 57.47,19.48 33.56,0 60.75,-11.57 81.96,-34.71 21.03,-23.14 31.63,-52.46 31.63,-87.94zm655.25 -182.45c-21.6,-11.76 -46.67,-17.55 -75.22,-17.55 -38.76,0 -69.04,14.27 -91.03,42.62 -21.79,28.55 -32.78,67.12 -32.78,116.1l0 276.37 -178.4 0 0 -578.57 178.4 0 0 107.42 2.31 0c28.35,-78.5 79.07,-117.65 152.55,-117.65 18.9,0 33.56,2.32 44.17,6.75l0 164.51zm570.97 138.47l0 279.07 -182.64 0 0 -810.2 286.01 0c204.24,0 306.26,86.02 306.26,258.24 0,81.39 -29.31,147.15 -87.94,197.49 -58.63,50.14 -136.74,75.4 -234.71,75.4l-86.98 0zm0 -391.11l0 252.64 71.74 0c97.2,0 145.8,-42.62 145.8,-127.67 0,-83.32 -48.6,-124.97 -145.8,-124.97l-71.74 0zm923.51 670.18l-168.94 0 0 -83.12 -2.32 0c-38.76,64.8 -96.24,97.2 -172.41,97.2 -56.13,0 -100.29,-15.82 -132.5,-47.64 -32.21,-31.82 -48.21,-74.44 -48.21,-127.48 0,-112.24 66.53,-177.04 199.41,-194.4l157.18 -20.83c0,-63.25 -34.33,-94.88 -102.98,-94.88 -68.85,0 -134.43,20.44 -196.53,61.52l0 -134.42c24.88,-12.92 58.83,-24.11 102.03,-33.95 43,-9.83 82.35,-14.65 117.83,-14.65 164.9,0 247.44,82.35 247.44,246.86l0 345.79zm-167.79 -235.09l0 -38.96 -105.11 13.5c-58.05,7.52 -86.97,33.75 -86.97,78.68 0,20.25 6.94,37.03 21.02,49.95 14.27,12.93 33.36,19.48 57.47,19.48 33.56,0 60.75,-11.57 81.96,-34.71 21.03,-23.14 31.63,-52.46 31.63,-87.94zm368.08 -435.09c-30.08,0 -54.77,-8.87 -73.86,-26.81 -19.29,-17.94 -28.93,-39.73 -28.93,-65.76 0,-26.81 9.64,-48.6 28.93,-65.58 19.09,-16.97 43.78,-25.45 73.86,-25.45 30.67,0 55.35,8.48 74.45,25.45 18.9,16.98 28.54,38.77 28.54,65.58 0,27 -9.64,49.37 -28.54,66.72 -19.1,17.17 -43.78,25.85 -74.45,25.85zm88.14 670.18l-178.4 0 0 -578.57 178.4 0 0 578.57zm496.52 -417.54c-21.6,-11.76 -46.67,-17.55 -75.22,-17.55 -38.76,0 -69.04,14.27 -91.03,42.62 -21.79,28.55 -32.78,67.12 -32.78,116.1l0 276.37 -178.4 0 0 -578.57 178.4 0 0 107.42 2.31 0c28.35,-78.5 79.07,-117.65 152.55,-117.65 18.9,0 33.56,2.32 44.17,6.75l0 164.51z"/>
   <g>
    <path class="fil0" d="M45933.81 14372.06c-13.73,-74.85 -16.26,-91.45 -10.94,-171.76 -115.6,-1.31 -147.65,-22.75 -160.46,-135.52 -38.47,-338.86 101.76,-307.99 535.25,-373.41 485.83,-73.32 751.09,-126.92 1152.32,-356.85 67.23,-38.53 123.99,-80.58 185.97,-119.07 165.21,-102.61 253.46,-115.73 483.12,-124.73 177.06,-6.93 395.85,-3.4 560.63,38.36 163.23,41.38 229.58,172.83 282.49,329.15 -337.79,-15.01 -800.27,-117.22 -1120.05,-231.35 -40.33,-14.39 -85.55,18.92 -145.11,57.42 -39.41,25.48 -100.33,58.88 -136.74,86.49 49.57,49.78 391.71,161.49 489.55,187.7 174.43,46.73 391.07,88.04 575.51,115.11 207.46,30.46 613.26,40.85 663.22,186.85 15.49,45.29 16.68,108.56 15.02,159 -4.56,139.19 -18.8,173.74 -150.29,181.13 2.83,19.81 4.33,40.05 4.33,60.64 0,39.04 -5.3,76.84 -15.15,112.75 304.62,0.32 436.94,46.93 464.61,-289.26 23.24,-282.39 6.3,-496.25 -270.52,-568.88 -43.58,-11.44 -38.72,-1.54 -55.99,-40.05 -19.77,-44.09 -37.87,-90.08 -60.33,-132.55 -65.51,-123.89 -50.17,-122.74 -143.6,-241.88 -212.99,-271.55 -960.74,-272.46 -1264.34,-215.77 -353.31,65.97 -461.78,298.95 -1060.83,465.11 -179.41,49.76 -463.16,94.77 -657.09,109.56 100.76,-304.72 212.54,-351.14 569.49,-368.68 151.43,-7.44 294.98,-4.43 444.46,11.49 57.11,6.09 45.95,3.57 88.68,-21.55l151.93 -88.99c34.15,-20.44 52.09,-25.39 71.54,-51.03 -231.64,-106.87 -634.84,-94.93 -910.03,-63.66 -343.44,39.01 -507.17,139.95 -631.11,379.46 -28.55,55.18 -53.62,112.5 -80.19,168.77 -58.4,123.7 -8.03,55.47 -143.49,113.18 -133.9,57.04 -181.33,127.69 -200.49,306.87 -13.76,128.73 -9.7,346.33 53.42,446.58 37.87,60.15 85.12,70.51 170.15,78.28 67.96,6.2 187.89,7.95 255.06,1.09z"/>
    <path class="fil0" d="M46744.31 14373.61l1583.07 -0.73c-12.2,-71.31 -10.8,-101.55 -11.66,-174.9l-1560.88 1.16c2.96,20.27 4.52,40.99 4.52,62.08 0,38.91 -5.26,76.59 -15.05,112.39z"/>
    <path class="fil0" d="M46334.26 13945.12c174.57,0 316.1,141.52 316.1,316.1 0,174.57 -141.53,316.1 -316.1,316.1 -174.57,0 -316.1,-141.53 -316.1,-316.1 0,-174.58 141.53,-316.1 316.1,-316.1zm0 161.22c85.54,0 154.88,69.34 154.88,154.88 0,85.54 -69.34,154.88 -154.88,154.88 -85.54,0 -154.88,-69.34 -154.88,-154.88 0,-85.54 69.34,-154.88 154.88,-154.88z"/>
    <path class="fil0" d="M48732.53 13945.12c174.57,0 316.1,141.52 316.1,316.1 0,174.57 -141.53,316.1 -316.1,316.1 -174.58,0 -316.1,-141.53 -316.1,-316.1 0,-174.58 141.52,-316.1 316.1,-316.1zm0 161.22c85.54,0 154.88,69.34 154.88,154.88 0,85.54 -69.34,154.88 -154.88,154.88 -85.54,0 -154.88,-69.34 -154.88,-154.88 0,-85.54 69.34,-154.88 154.88,-154.88z"/>
    <path class="fil0" d="M46907.74 11929.42c-167.81,0 -303.86,136.04 -303.86,303.86 0,74.92 27.24,143.38 72.19,196.36l231.67 272.84 231.66 -272.84c44.95,-52.98 72.19,-121.45 72.19,-196.37 0.01,-167.81 -136.03,-303.85 -303.85,-303.85zm0 418.36c-69.02,0 -124.96,-55.95 -124.96,-124.96 0,-69.02 55.94,-124.97 124.96,-124.97 69.02,0 124.96,55.95 124.96,124.97 0,69.01 -55.94,124.96 -124.96,124.96z"/>
    <path class="fil0" d="M48136.57 11929.42c-167.82,0 -303.86,136.04 -303.86,303.86 0,74.92 27.24,143.38 72.19,196.36l231.67 272.84 231.66 -272.84c44.95,-52.98 72.18,-121.45 72.18,-196.37 0.01,-167.81 -136.03,-303.85 -303.84,-303.85zm0 418.36c-69.02,0 -124.96,-55.95 -124.96,-124.96 0,-69.02 55.94,-124.97 124.96,-124.97 69.01,0 124.96,55.95 124.96,124.97 0,69.01 -55.95,124.96 -124.96,124.96z"/>
   </g>
  </g>
  <path class="fil0" d="M55071.67 105.79l13243.06 0c213.16,0 387.56,174.4 387.56,387.56l0 13243.06c0,213.16 -174.4,387.55 -387.56,387.55l-13243.06 0c-213.16,0 -387.55,-174.39 -387.55,-387.55l0 -13243.06c0,-213.16 174.39,-387.56 387.55,-387.56z"/>
  <g id="_3066384384432">
   <path class="fil1" d="M59094.45 10197.15c-90.9,43.96 -210.02,65.94 -356.76,65.94 -191.3,0 -341.91,-56.14 -451.52,-168.72 -109.91,-112.58 -164.57,-262.6 -164.57,-450.04 0,-199.62 61.49,-361.51 184.77,-485.68 123.27,-124.17 283.39,-186.25 480.04,-186.25 121.79,0 224.57,15.44 308.04,46.34l0 270.61c-83.47,-49.9 -178.53,-74.85 -285.47,-74.85 -117.04,0 -211.8,36.83 -283.68,110.5 -71.89,73.67 -107.83,173.48 -107.83,299.43 0,120.6 33.86,216.85 101.88,288.44 67.73,71.59 159.23,107.53 274.19,107.53 109.61,0 210.01,-26.73 300.91,-80.2l0 256.95zm997.97 44.26l-274.18 0 0 -506.48c0,-130.7 -47.52,-195.75 -142.88,-195.75 -48.72,0 -88.22,18.12 -118.23,54.65 -30.3,36.54 -45.44,83.18 -45.44,139.32l0 508.26 -274.78 0 0 -1319.21 274.78 0 0 560.24 3.56 0c67.43,-102.48 158.63,-153.87 274.18,-153.87 202,0 302.99,121.79 302.99,365.37l0 547.47zm910.65 0l-260.22 0 0 -128.03 -3.57 0c-59.71,99.81 -148.23,149.71 -265.56,149.71 -86.45,0 -154.47,-24.35 -204.08,-73.37 -49.61,-49.01 -74.26,-114.66 -74.26,-196.35 0,-172.88 102.48,-272.69 307.15,-299.43l242.1 -32.08c0,-97.43 -52.88,-146.15 -158.63,-146.15 -106.04,0 -207.04,31.49 -302.69,94.76l0 -207.05c38.32,-19.9 90.6,-37.13 157.14,-52.28 66.24,-15.15 126.84,-22.57 181.5,-22.57 253.98,0 381.12,126.84 381.12,380.22l0 532.62zm-258.44 -362.11l0 -60 -161.89 20.79c-89.42,11.59 -133.98,51.99 -133.98,121.2 0,31.19 10.7,57.03 32.38,76.94 21.99,19.9 51.39,30 88.53,30 51.68,0 93.57,-17.83 126.24,-53.47 32.38,-35.65 48.72,-80.8 48.72,-135.46zm1009.26 -281.01c-33.27,-18.12 -71.88,-27.03 -115.85,-27.03 -59.7,0 -106.34,21.98 -140.21,65.65 -33.56,43.96 -50.49,103.37 -50.49,178.82l0 425.68 -274.78 0 0 -891.16 274.78 0 0 165.46 3.56 0c43.67,-120.9 121.79,-181.2 234.97,-181.2 29.11,0 51.69,3.56 68.02,10.39l0 253.39z"/>
   <path class="fil2" d="M62633.34 9811.57l0 429.84 -281.31 0 0 -1247.92 440.53 0c314.58,0 471.72,132.48 471.72,397.75 0,125.36 -45.16,226.66 -135.46,304.19 -90.3,77.23 -210.61,116.14 -361.51,116.14l-133.97 0zm0 -602.42l0 389.14 110.5 0c149.71,0 224.57,-65.65 224.57,-196.65 0,-128.33 -74.86,-192.49 -224.57,-192.49l-110.5 0zm1422.46 1032.26l-260.22 0 0 -128.03 -3.57 0c-59.71,99.81 -148.23,149.71 -265.56,149.71 -86.45,0 -154.47,-24.35 -204.08,-73.37 -49.61,-49.01 -74.26,-114.66 -74.26,-196.35 0,-172.88 102.48,-272.69 307.15,-299.43l242.1 -32.08c0,-97.43 -52.88,-146.15 -158.63,-146.15 -106.04,0 -207.04,31.49 -302.69,94.76l0 -207.05c38.32,-19.9 90.6,-37.13 157.14,-52.28 66.24,-15.15 126.84,-22.57 181.5,-22.57 253.98,0 381.12,126.84 381.12,380.22l0 532.62zm-258.44 -362.11l0 -60 -161.89 20.79c-89.42,11.59 -133.98,51.99 -133.98,121.2 0,31.19 10.7,57.03 32.38,76.94 21.99,19.9 51.39,30 88.53,30 51.68,0 93.57,-17.83 126.24,-53.47 32.38,-35.65 48.72,-80.8 48.72,-135.46zm566.95 -670.15c-46.34,0 -84.36,-13.66 -113.77,-41.29 -29.7,-27.63 -44.56,-61.19 -44.56,-101.3 0,-41.29 14.86,-74.85 44.56,-100.99 29.41,-26.14 67.43,-39.22 113.77,-39.22 47.23,0 85.26,13.08 114.66,39.22 29.12,26.14 43.97,59.7 43.97,100.99 0,41.59 -14.85,76.05 -43.97,102.78 -29.4,26.44 -67.43,39.81 -114.66,39.81zm135.76 1032.26l-274.78 0 0 -891.16 274.78 0 0 891.16zm764.78 -643.12c-33.27,-18.12 -71.88,-27.03 -115.85,-27.03 -59.7,0 -106.34,21.98 -140.21,65.65 -33.56,43.96 -50.49,103.37 -50.49,178.82l0 425.68 -274.78 0 0 -891.16 274.78 0 0 165.46 3.56 0c43.67,-120.9 121.79,-181.2 234.97,-181.2 29.11,0 51.69,3.56 68.02,10.39l0 253.39z"/>
  </g>
  <g id="_3066384384096">
   <path class="fil21" d="M58930.32 8108.21c-23.74,-129.42 -28.12,-158.13 -18.93,-297 -199.89,-2.27 -255.31,-39.33 -277.45,-234.34 -66.52,-585.96 175.95,-532.57 925.54,-645.7 840.11,-126.8 1298.8,-219.48 1992.59,-617.07 116.26,-66.63 214.4,-139.33 321.58,-205.89 285.68,-177.43 438.3,-200.13 835.42,-215.68 306.17,-11.99 684.51,-5.88 969.43,66.33 282.27,71.55 397,298.86 488.48,569.17 -584.1,-25.97 -1383.82,-202.71 -1936.78,-400.06 -69.73,-24.88 -147.94,32.72 -250.92,99.29 -68.15,44.06 -173.5,101.82 -236.45,149.56 85.71,86.08 677.34,279.25 846.52,324.57 301.62,80.8 676.24,152.24 995.17,199.06 358.75,52.66 1060.45,70.63 1146.83,323.1 26.8,78.3 28.86,187.72 25.99,274.94 -7.88,240.69 -32.52,300.43 -259.88,313.2 4.89,34.25 7.48,69.25 7.48,104.86 0,67.5 -9.16,132.87 -26.19,194.96 526.75,0.56 755.55,81.16 803.4,-500.17 40.19,-488.32 10.89,-858.12 -467.78,-983.72 -75.36,-19.78 -66.95,-2.66 -96.82,-69.25 -34.18,-76.24 -65.49,-155.76 -104.32,-229.2 -113.28,-214.24 -86.76,-212.25 -248.33,-418.26 -368.28,-469.57 -1661.29,-471.14 -2186.29,-373.1 -610.93,114.07 -798.51,516.93 -1834.37,804.26 -310.24,86.05 -800.9,163.86 -1136.25,189.44 174.23,-526.91 367.52,-607.19 984.77,-637.51 261.85,-12.87 510.06,-7.66 768.56,19.87 98.75,10.52 79.46,6.17 153.34,-37.28l262.71 -153.88c59.06,-35.34 90.08,-43.9 123.72,-88.23 -400.57,-184.8 -1097.78,-164.15 -1573.63,-110.09 -593.88,67.46 -877,242.01 -1091.31,656.16 -49.38,95.42 -92.73,194.54 -138.66,291.84 -100.99,213.9 -13.89,95.92 -248.13,195.71 -231.54,98.64 -313.55,220.8 -346.68,530.64 -23.8,222.61 -16.77,598.88 92.36,772.23 65.49,104.02 147.19,121.93 294.22,135.36 117.53,10.73 324.9,13.75 441.06,1.88z"/>
   <path class="fil4" d="M60331.83 8110.9l2737.44 -1.26c-21.09,-123.31 -18.66,-175.61 -20.17,-302.44l-2699.07 2.01c5.14,35.05 7.83,70.87 7.83,107.34 0,67.28 -9.1,132.44 -26.03,194.35z"/>
   <path class="fil22" d="M59622.77 7369.95c301.88,0 546.6,244.73 546.6,546.6 0,301.87 -244.72,546.59 -546.6,546.59 -301.87,0 -546.59,-244.72 -546.59,-546.59 0,-301.87 244.72,-546.6 546.59,-546.6zm0 278.78c147.92,0 267.82,119.9 267.82,267.82 0,147.91 -119.9,267.82 -267.82,267.82 -147.91,0 -267.82,-119.91 -267.82,-267.82 0,-147.92 119.91,-267.82 267.82,-267.82z"/>
   <path class="fil23" d="M63769.85 7369.95c301.88,0 546.6,244.73 546.6,546.6 0,301.87 -244.72,546.59 -546.6,546.59 -301.87,0 -546.59,-244.72 -546.59,-546.59 0,-301.87 244.72,-546.6 546.59,-546.6zm0 278.78c147.92,0 267.82,119.9 267.82,267.82 0,147.91 -119.9,267.82 -267.82,267.82 -147.91,0 -267.82,-119.91 -267.82,-267.82 0,-147.92 119.91,-267.82 267.82,-267.82z"/>
   <path class="fil7" d="M60614.44 3884.41c-290.19,0 -525.43,235.24 -525.43,525.43 0,129.55 47.1,247.94 124.82,339.55l400.61 471.8 400.58 -471.81c77.73,-91.6 124.83,-210.01 124.83,-339.56 0.01,-290.17 -235.23,-525.41 -525.41,-525.41zm0 723.42c-119.35,0 -216.08,-96.74 -216.08,-216.08 0,-119.35 96.73,-216.09 216.08,-216.09 119.34,0 216.08,96.74 216.08,216.09 0,119.34 -96.74,216.08 -216.08,216.08z"/>
   <path class="fil24" d="M62739.32 3884.41c-290.18,0 -525.43,235.24 -525.43,525.43 0,129.55 47.1,247.94 124.83,339.55l400.6 471.8 400.59 -471.81c77.72,-91.6 124.82,-210.01 124.82,-339.56 0.02,-290.17 -235.23,-525.41 -525.41,-525.41zm0 723.42c-119.34,0 -216.08,-96.74 -216.08,-216.08 0,-119.35 96.74,-216.09 216.08,-216.09 119.34,0 216.08,96.74 216.08,216.09 0,119.34 -96.74,216.08 -216.08,216.08z"/>
  </g>
  <g id="_3068549836320">
   <g>
    <g>
     <path class="fil1" d="M61994.58 2385.92c-67.57,32.68 -156.12,49.02 -265.2,49.02 -142.21,0 -254.17,-41.74 -335.65,-125.43 -81.7,-83.69 -122.33,-195.2 -122.33,-334.54 0,-148.39 45.71,-268.74 137.35,-361.04 91.64,-92.3 210.66,-138.45 356.84,-138.45 90.54,0 166.94,11.48 228.99,34.44l0 201.17c-62.05,-37.1 -132.71,-55.64 -212.2,-55.64 -87.01,0 -157.45,27.38 -210.89,82.14 -53.44,54.76 -80.16,128.96 -80.16,222.59 0,89.65 25.18,161.2 75.75,214.41 50.34,53.22 118.36,79.94 203.81,79.94 81.49,0 156.12,-19.87 223.69,-59.62l0 191.01zm741.86 32.9l-203.82 0 0 -376.5c0,-97.16 -35.33,-145.52 -106.21,-145.52 -36.21,0 -65.58,13.47 -87.89,40.63 -22.52,27.16 -33.78,61.83 -33.78,103.57l0 377.82 -204.26 0 0 -980.66 204.26 0 0 416.46 2.65 0c50.12,-76.18 117.92,-114.38 203.81,-114.38 150.16,0 225.24,90.54 225.24,271.61l0 406.97zm676.94 0l-193.44 0 0 -95.17 -2.65 0c-44.39,74.19 -110.19,111.29 -197.41,111.29 -64.26,0 -114.83,-18.11 -151.71,-54.54 -36.88,-36.44 -55.2,-85.24 -55.2,-145.96 0,-128.52 76.18,-202.72 228.32,-222.59l179.97 -23.85c0,-72.43 -39.3,-108.64 -117.91,-108.64 -78.84,0 -153.92,23.4 -225.02,70.44l0 -153.91c28.49,-14.8 67.35,-27.61 116.81,-38.87 49.25,-11.26 94.29,-16.78 134.92,-16.78 188.81,0 283.32,94.29 283.32,282.65l0 395.93zm-192.12 -269.18l0 -44.61 -120.34 15.46c-66.47,8.61 -99.59,38.65 -99.59,90.1 0,23.18 7.95,42.39 24.07,57.19 16.34,14.79 38.2,22.3 65.8,22.3 38.42,0 69.56,-13.25 93.85,-39.75 24.07,-26.49 36.21,-60.06 36.21,-100.69zm750.25 -208.9c-24.73,-13.47 -53.43,-20.09 -86.12,-20.09 -44.38,0 -79.05,16.34 -104.22,48.8 -24.95,32.68 -37.54,76.85 -37.54,132.93l0 316.44 -204.26 0 0 -662.46 204.26 0 0 123 2.65 0c32.46,-89.88 90.53,-134.7 174.67,-134.7 21.64,0 38.42,2.65 50.56,7.73l0 188.35z"/>
     <path class="fil2" d="M64625.27 2099.29l0 319.53 -209.12 0 0 -927.66 327.48 0c233.85,0 350.66,98.48 350.66,295.67 0,93.19 -33.56,168.49 -100.69,226.12 -67.13,57.42 -156.56,86.34 -268.74,86.34l-99.59 0zm0 -447.82l0 289.27 82.15 0c111.29,0 166.94,-48.8 166.94,-146.18 0,-95.39 -55.65,-143.09 -166.94,-143.09l-82.15 0zm1057.41 767.35l-193.44 0 0 -95.17 -2.65 0c-44.39,74.19 -110.19,111.29 -197.41,111.29 -64.26,0 -114.83,-18.11 -151.71,-54.54 -36.88,-36.44 -55.2,-85.24 -55.2,-145.96 0,-128.52 76.18,-202.72 228.32,-222.59l179.97 -23.85c0,-72.43 -39.3,-108.64 -117.91,-108.64 -78.84,0 -153.92,23.4 -225.02,70.44l0 -153.91c28.49,-14.8 67.35,-27.61 116.81,-38.87 49.25,-11.26 94.29,-16.78 134.92,-16.78 188.81,0 283.32,94.29 283.32,282.65l0 395.93zm-192.12 -269.18l0 -44.61 -120.34 15.46c-66.47,8.61 -99.59,38.65 -99.59,90.1 0,23.18 7.95,42.39 24.07,57.19 16.34,14.79 38.2,22.3 65.8,22.3 38.42,0 69.56,-13.25 93.85,-39.75 24.07,-26.49 36.21,-60.06 36.21,-100.69zm421.45 -498.17c-34.44,0 -62.71,-10.16 -84.57,-30.69 -22.08,-20.54 -33.12,-45.49 -33.12,-75.3 0,-30.7 11.04,-55.65 33.12,-75.08 21.86,-19.43 50.13,-29.15 84.57,-29.15 35.11,0 63.38,9.72 85.24,29.15 21.64,19.43 32.68,44.38 32.68,75.08 0,30.91 -11.04,56.53 -32.68,76.4 -21.86,19.65 -50.13,29.59 -85.24,29.59zm100.92 767.35l-204.26 0 0 -662.46 204.26 0 0 662.46zm568.51 -478.08c-24.73,-13.47 -53.43,-20.09 -86.12,-20.09 -44.38,0 -79.05,16.34 -104.22,48.8 -24.95,32.68 -37.54,76.85 -37.54,132.93l0 316.44 -204.26 0 0 -662.46 204.26 0 0 123 2.65 0c32.46,-89.88 90.53,-134.7 174.67,-134.7 21.64,0 38.42,2.65 50.56,7.73l0 188.35z"/>
    </g>
    <polygon class="fil9" points="60898.51,1504.09 60898.51,2418.82 60854.11,2418.82 60854.11,1504.09 "/>
   </g>
   <g>
    <path class="fil25" d="M57886.58 2427.96c-9.05,-49.35 -10.72,-60.3 -7.22,-113.26 -76.22,-0.86 -97.36,-14.99 -105.8,-89.36 -25.37,-223.44 67.1,-203.08 352.94,-246.22 320.36,-48.35 495.27,-83.7 759.84,-235.31 44.33,-25.41 81.76,-53.13 122.63,-78.51 108.94,-67.66 167.13,-76.32 318.57,-82.25 116.75,-4.57 261.02,-2.24 369.67,25.3 107.64,27.28 151.39,113.96 186.28,217.04 -222.74,-9.9 -527.7,-77.3 -738.56,-152.56 -26.59,-9.49 -56.41,12.48 -95.68,37.87 -25.99,16.8 -66.17,38.82 -90.17,57.03 32.68,32.82 258.29,106.48 322.8,123.76 115.02,30.82 257.88,58.06 379.5,75.91 136.8,20.09 404.38,26.94 437.32,123.21 10.22,29.86 11,71.58 9.91,104.84 -3.01,91.79 -12.4,114.57 -99.1,119.44 1.86,13.06 2.85,26.41 2.85,39.98 0,25.75 -3.49,50.67 -9.99,74.35 200.87,0.21 288.12,30.95 306.37,-190.73 15.32,-186.21 4.15,-327.23 -178.38,-375.13 -28.74,-7.54 -25.53,-1.01 -36.92,-26.4 -13.04,-29.07 -24.98,-59.4 -39.78,-87.41 -43.2,-81.69 -33.09,-80.93 -94.7,-159.49 -140.44,-179.06 -633.5,-179.66 -833.7,-142.28 -232.97,43.5 -304.5,197.13 -699.51,306.69 -118.3,32.82 -305.4,62.49 -433.28,72.24 66.43,-200.92 140.14,-231.54 375.52,-243.1 99.85,-4.9 194.5,-2.92 293.07,7.58 37.66,4.01 30.31,2.35 58.48,-14.22l100.18 -58.68c22.52,-13.47 34.35,-16.74 47.18,-33.64 -152.75,-70.47 -418.62,-62.6 -600.08,-41.98 -226.46,25.72 -334.42,92.28 -416.15,250.21 -18.83,36.39 -35.36,74.19 -52.88,111.29 -38.5,81.57 -5.29,36.58 -94.61,74.63 -88.3,37.61 -119.57,84.2 -132.2,202.35 -9.08,84.89 -6.4,228.37 35.22,294.48 24.97,39.66 56.12,46.49 112.19,51.61 44.82,4.09 123.9,5.25 168.19,0.72z"/>
    <path class="fil11" d="M58421.02 2428.99l1043.87 -0.49c-8.04,-47.02 -7.11,-66.96 -7.69,-115.32l-1029.24 0.76c1.96,13.37 2.99,27.03 2.99,40.93 0,25.66 -3.47,50.51 -9.93,74.12z"/>
    <path class="fil26" d="M58150.64 2146.44c115.11,0 208.43,93.32 208.43,208.43 0,115.12 -93.32,208.44 -208.43,208.44 -115.12,0 -208.44,-93.32 -208.44,-208.44 0,-115.11 93.32,-208.43 208.44,-208.43zm0 106.3c56.4,0 102.12,45.73 102.12,102.13 0,56.41 -45.72,102.13 -102.12,102.13 -56.41,0 -102.13,-45.72 -102.13,-102.13 0,-56.4 45.72,-102.13 102.13,-102.13z"/>
    <path class="fil27" d="M59732.05 2146.44c115.11,0 208.43,93.32 208.43,208.43 0,115.12 -93.32,208.44 -208.43,208.44 -115.11,0 -208.43,-93.32 -208.43,-208.44 0,-115.11 93.32,-208.43 208.43,-208.43zm0 106.3c56.4,0 102.13,45.73 102.13,102.13 0,56.41 -45.73,102.13 -102.13,102.13 -56.4,0 -102.13,-45.72 -102.13,-102.13 0,-56.4 45.73,-102.13 102.13,-102.13z"/>
    <path class="fil14" d="M58528.79 817.29c-110.66,0 -200.36,89.71 -200.36,200.36 0,49.4 17.96,94.55 47.6,129.49l152.76 179.91 152.76 -179.92c29.63,-34.93 47.6,-80.08 47.6,-129.48 0,-110.65 -89.71,-200.36 -200.36,-200.36zm0 275.86c-45.51,0 -82.4,-36.89 -82.4,-82.4 0,-45.51 36.89,-82.4 82.4,-82.4 45.51,0 82.4,36.89 82.4,82.4 0,45.51 -36.89,82.4 -82.4,82.4z"/>
    <path class="fil28" d="M59339.07 817.29c-110.65,0 -200.36,89.71 -200.36,200.36 0,49.4 17.96,94.55 47.6,129.49l152.76 179.91 152.76 -179.92c29.64,-34.93 47.6,-80.08 47.6,-129.48 0.01,-110.65 -89.7,-200.36 -200.36,-200.36zm0 275.86c-45.51,0 -82.39,-36.89 -82.39,-82.4 0,-45.51 36.89,-82.4 82.39,-82.4 45.51,0 82.4,36.89 82.4,82.4 0,45.51 -36.89,82.4 -82.4,82.4z"/>
   </g>
  </g>
  <g id="_3066554973568">
   <polygon class="fil16" points="70088.98,857.59 78234.91,857.59 78234.91,9003.52 70088.98,9003.52 "/>
   <path class="fil29" d="M72743.46 6693.42c-49.62,24 -114.64,36 -194.73,36 -104.42,0 -186.63,-30.65 -246.46,-92.1 -59.99,-61.45 -89.83,-143.33 -89.83,-245.64 0,-108.96 33.57,-197.33 100.86,-265.11 67.29,-67.77 154.68,-101.66 262.02,-101.66 66.48,0 122.58,8.43 168.14,25.29l0 147.72c-45.56,-27.24 -97.45,-40.86 -155.82,-40.86 -63.88,0 -115.61,20.1 -154.84,60.31 -39.24,40.21 -58.86,94.69 -58.86,163.44 0,65.83 18.48,118.37 55.61,157.44 36.97,39.08 86.91,58.7 149.66,58.7 59.83,0 114.63,-14.6 164.25,-43.78l0 140.25zm544.72 24.16l-149.65 0 0 -276.45c0,-71.34 -25.95,-106.85 -77.99,-106.85 -26.59,0 -48.16,9.89 -64.54,29.83 -16.53,19.94 -24.8,45.4 -24.8,76.05l0 277.42 -149.98 0 0 -720.07 149.98 0 0 305.8 1.94 0c36.81,-55.94 86.59,-83.99 149.66,-83.99 110.26,0 165.38,66.48 165.38,199.43l0 298.83zm497.06 0l-142.04 0 0 -69.88 -1.94 0c-32.59,54.48 -80.91,81.72 -144.96,81.72 -47.18,0 -84.31,-13.3 -111.39,-40.05 -27.07,-26.76 -40.53,-62.59 -40.53,-107.18 0,-94.36 55.94,-148.84 167.65,-163.44l132.15 -17.51c0,-53.18 -28.86,-79.77 -86.59,-79.77 -57.88,0 -113.01,17.18 -165.22,51.72l0 -113.01c20.92,-10.87 49.45,-20.27 85.77,-28.54 36.16,-8.27 69.24,-12.32 99.07,-12.32 138.63,0 208.03,69.23 208.03,207.54l0 290.72zm-141.06 -197.65l0 -32.75 -88.37 11.35c-48.8,6.32 -73.13,28.37 -73.13,66.15 0,17.03 5.84,31.13 17.68,42 12,10.86 28.05,16.37 48.32,16.37 28.21,0 51.07,-9.73 68.91,-29.18 17.67,-19.46 26.59,-44.11 26.59,-73.94zm550.89 -153.39c-18.16,-9.89 -39.24,-14.75 -63.24,-14.75 -32.59,0 -58.05,12 -76.53,35.83 -18.32,24 -27.56,56.43 -27.56,97.61l0 232.35 -149.98 0 0 -486.43 149.98 0 0 90.32 1.94 0c23.84,-65.99 66.48,-98.91 128.26,-98.91 15.89,0 28.21,1.95 37.13,5.68l0 138.3zm480.02 116.42l0 234.62 -153.55 0 0 -681.16 240.45 0c171.71,0 257.49,72.32 257.49,217.11 0,68.42 -24.65,123.71 -73.94,166.03 -49.29,42.16 -114.96,63.4 -197.33,63.4l-73.12 0zm0 -328.82l0 212.4 60.31 0c81.72,0 122.58,-35.83 122.58,-107.33 0,-70.05 -40.86,-105.07 -122.58,-105.07l-60.31 0zm776.42 563.44l-142.04 0 0 -69.88 -1.94 0c-32.59,54.48 -80.91,81.72 -144.96,81.72 -47.18,0 -84.31,-13.3 -111.39,-40.05 -27.07,-26.76 -40.53,-62.59 -40.53,-107.18 0,-94.36 55.94,-148.84 167.65,-163.44l132.15 -17.51c0,-53.18 -28.86,-79.77 -86.59,-79.77 -57.88,0 -113.01,17.18 -165.22,51.72l0 -113.01c20.92,-10.87 49.45,-20.27 85.77,-28.54 36.16,-8.27 69.24,-12.32 99.07,-12.32 138.63,0 208.03,69.23 208.03,207.54l0 290.72zm-141.06 -197.65l0 -32.75 -88.37 11.35c-48.8,6.32 -73.13,28.37 -73.13,66.15 0,17.03 5.84,31.13 17.68,42 12,10.86 28.05,16.37 48.32,16.37 28.21,0 51.07,-9.73 68.91,-29.18 17.67,-19.46 26.59,-44.11 26.59,-73.94zm309.46 -365.79c-25.3,0 -46.05,-7.46 -62.1,-22.54 -16.22,-15.08 -24.32,-33.4 -24.32,-55.29 0,-22.54 8.1,-40.86 24.32,-55.13 16.05,-14.27 36.8,-21.4 62.1,-21.4 25.78,0 46.53,7.13 62.58,21.4 15.89,14.27 24,32.59 24,55.13 0,22.7 -8.11,41.51 -24,56.1 -16.05,14.43 -36.8,21.73 -62.58,21.73zm74.1 563.44l-149.98 0 0 -486.43 149.98 0 0 486.43zm417.44 -351.04c-18.16,-9.89 -39.24,-14.75 -63.24,-14.75 -32.59,0 -58.05,12 -76.53,35.83 -18.32,24 -27.56,56.43 -27.56,97.61l0 232.35 -149.98 0 0 -486.43 149.98 0 0 90.32 1.94 0c23.84,-65.99 66.48,-98.91 128.26,-98.91 15.89,0 28.21,1.95 37.13,5.68l0 138.3z"/>
   <path class="fil30" d="M72564.16 5505.01c-13.73,-74.85 -16.26,-91.45 -10.95,-171.76 -115.59,-1.31 -147.65,-22.75 -160.45,-135.52 -38.47,-338.85 101.76,-307.98 535.25,-373.41 485.83,-73.33 751.09,-126.93 1152.32,-356.85 67.23,-38.53 123.98,-80.58 185.97,-119.07 165.21,-102.61 253.47,-115.74 483.12,-124.73 177.06,-6.93 395.86,-3.4 560.63,38.36 163.23,41.38 229.58,172.83 282.49,329.15 -337.79,-15.01 -800.27,-117.22 -1120.05,-231.35 -40.32,-14.39 -85.55,18.92 -145.11,57.42 -39.41,25.47 -100.33,58.88 -136.74,86.49 49.57,49.78 391.72,161.49 489.55,187.7 174.42,46.72 391.07,88.04 575.51,115.11 207.46,30.46 613.26,40.85 663.21,186.85 15.5,45.29 16.69,108.56 15.03,159 -4.55,139.19 -18.8,173.74 -150.29,181.13 2.84,19.81 4.33,40.04 4.33,60.64 0,39.04 -5.29,76.83 -15.15,112.75 304.63,0.32 436.94,46.93 464.61,-289.26 23.24,-282.39 6.3,-496.24 -270.52,-568.88 -43.58,-11.44 -38.72,-1.54 -55.99,-40.05 -19.77,-44.09 -37.87,-90.08 -60.33,-132.55 -65.51,-123.89 -50.17,-122.74 -143.6,-241.88 -212.99,-271.56 -960.74,-272.46 -1264.34,-215.77 -353.3,65.98 -461.78,298.95 -1060.82,465.11 -179.41,49.76 -463.16,94.77 -657.11,109.55 100.77,-304.71 212.55,-351.13 569.5,-368.67 151.43,-7.44 294.97,-4.42 444.46,11.49 57.11,6.09 45.96,3.58 88.68,-21.55l151.93 -88.99c34.15,-20.44 52.09,-25.39 71.54,-51.03 -231.64,-106.87 -634.84,-94.93 -910.03,-63.67 -343.44,39.01 -507.17,139.96 -631.11,379.47 -28.55,55.18 -53.62,112.5 -80.19,168.77 -58.39,123.7 -8.03,55.47 -143.49,113.18 -133.9,57.04 -181.33,127.68 -200.48,306.87 -13.77,128.73 -9.7,346.33 53.41,446.58 37.86,60.15 85.12,70.51 170.14,78.29 67.97,6.19 187.9,7.94 255.07,1.08zm2202.76 -2442.64c-167.82,0 -303.86,136.04 -303.86,303.86 0,74.91 27.24,143.38 72.19,196.36l231.67 272.85 231.66 -272.86c44.95,-52.97 72.18,-121.44 72.18,-196.36 0.01,-167.81 -136.03,-303.85 -303.84,-303.85zm0 418.35c-69.02,0 -124.97,-55.94 -124.97,-124.95 0,-69.02 55.95,-124.97 124.97,-124.97 69.01,0 124.95,55.95 124.95,124.97 0,69.02 -55.94,124.95 -124.95,124.95zm-1228.83 -418.35c-167.81,0 -303.86,136.04 -303.86,303.86 0,74.91 27.24,143.38 72.2,196.36l231.66 272.85 231.66 -272.86c44.95,-52.97 72.19,-121.44 72.19,-196.36 0.01,-167.81 -136.04,-303.85 -303.85,-303.85zm0 418.35c-69.01,0 -124.96,-55.94 -124.96,-124.95 0,-69.02 55.95,-124.97 124.96,-124.97 69.01,0 124.96,55.95 124.96,124.97 0,69.02 -55.95,124.95 -124.96,124.95zm1824.79 1597.35c174.57,0 316.09,141.53 316.09,316.1 0,174.57 -141.52,316.1 -316.09,316.1 -174.58,0 -316.1,-141.53 -316.1,-316.1 0,-174.57 141.52,-316.1 316.1,-316.1zm0 161.21c85.54,0 154.88,69.35 154.88,154.89 0,85.53 -69.34,154.88 -154.88,154.88 -85.54,0 -154.88,-69.35 -154.88,-154.88 0,-85.54 69.34,-154.89 154.88,-154.89zm-2398.27 -161.21c174.58,0 316.1,141.53 316.1,316.1 0,174.57 -141.52,316.1 -316.1,316.1 -174.57,0 -316.1,-141.53 -316.1,-316.1 0,-174.57 141.53,-316.1 316.1,-316.1zm0 161.21c85.54,0 154.88,69.35 154.88,154.89 0,85.53 -69.34,154.88 -154.88,154.88 -85.54,0 -154.88,-69.35 -154.88,-154.88 0,-85.54 69.34,-154.89 154.88,-154.89zm410.05 267.28l1583.06 -0.73c-12.19,-71.31 -10.79,-101.55 -11.65,-174.9l-1560.88 1.16c2.97,20.27 4.52,40.99 4.52,62.08 0,38.91 -5.25,76.59 -15.05,112.39z"/>
  </g>
  <g id="_3065838553632">
   <polygon class="fil19" points="70088.98,9724.64 78234.91,9724.64 78234.91,17870.57 70088.98,17870.57 "/>
   <path class="fil20" d="M72743.45 15560.47c-49.62,24 -114.64,36 -194.73,36 -104.42,0 -186.63,-30.65 -246.46,-92.1 -59.99,-61.45 -89.83,-143.33 -89.83,-245.64 0,-108.96 33.57,-197.33 100.86,-265.11 67.29,-67.77 154.68,-101.66 262.02,-101.66 66.48,0 122.58,8.43 168.14,25.29l0 147.72c-45.56,-27.24 -97.45,-40.86 -155.82,-40.86 -63.88,0 -115.61,20.1 -154.84,60.31 -39.24,40.21 -58.86,94.69 -58.86,163.44 0,65.83 18.48,118.37 55.61,157.44 36.97,39.08 86.91,58.7 149.66,58.7 59.83,0 114.63,-14.6 164.25,-43.78l0 140.25zm544.72 24.16l-149.65 0 0 -276.45c0,-71.34 -25.95,-106.85 -77.99,-106.85 -26.59,0 -48.16,9.89 -64.54,29.83 -16.53,19.94 -24.8,45.4 -24.8,76.05l0 277.42 -149.98 0 0 -720.07 149.98 0 0 305.8 1.94 0c36.81,-55.94 86.59,-83.99 149.66,-83.99 110.26,0 165.38,66.48 165.38,199.43l0 298.83zm497.06 0l-142.04 0 0 -69.88 -1.94 0c-32.59,54.48 -80.91,81.72 -144.96,81.72 -47.18,0 -84.31,-13.3 -111.39,-40.05 -27.07,-26.76 -40.53,-62.59 -40.53,-107.18 0,-94.36 55.94,-148.84 167.65,-163.44l132.15 -17.51c0,-53.18 -28.86,-79.77 -86.59,-79.77 -57.88,0 -113.01,17.18 -165.22,51.72l0 -113.01c20.92,-10.87 49.45,-20.27 85.77,-28.54 36.16,-8.27 69.24,-12.32 99.07,-12.32 138.63,0 208.03,69.23 208.03,207.54l0 290.72zm-141.06 -197.65l0 -32.75 -88.37 11.35c-48.8,6.32 -73.13,28.37 -73.13,66.15 0,17.03 5.84,31.13 17.68,42 12,10.86 28.05,16.37 48.32,16.37 28.21,0 51.07,-9.73 68.91,-29.18 17.67,-19.46 26.59,-44.11 26.59,-73.94zm550.89 -153.39c-18.16,-9.89 -39.24,-14.75 -63.24,-14.75 -32.59,0 -58.05,12 -76.53,35.83 -18.32,24 -27.56,56.43 -27.56,97.61l0 232.35 -149.98 0 0 -486.43 149.98 0 0 90.32 1.94 0c23.84,-65.99 66.48,-98.91 128.26,-98.91 15.89,0 28.21,1.95 37.13,5.68l0 138.3zm480.02 116.42l0 234.62 -153.55 0 0 -681.16 240.45 0c171.71,0 257.49,72.32 257.49,217.11 0,68.42 -24.65,123.71 -73.94,166.03 -49.29,42.16 -114.96,63.4 -197.33,63.4l-73.12 0zm0 -328.82l0 212.4 60.31 0c81.72,0 122.58,-35.83 122.58,-107.33 0,-70.05 -40.86,-105.07 -122.58,-105.07l-60.31 0zm776.42 563.44l-142.04 0 0 -69.88 -1.94 0c-32.59,54.48 -80.91,81.72 -144.96,81.72 -47.18,0 -84.31,-13.3 -111.39,-40.05 -27.07,-26.76 -40.53,-62.59 -40.53,-107.18 0,-94.36 55.94,-148.84 167.65,-163.44l132.15 -17.51c0,-53.18 -28.86,-79.77 -86.59,-79.77 -57.88,0 -113.01,17.18 -165.22,51.72l0 -113.01c20.92,-10.87 49.45,-20.27 85.77,-28.54 36.16,-8.27 69.24,-12.32 99.07,-12.32 138.63,0 208.03,69.23 208.03,207.54l0 290.72zm-141.06 -197.65l0 -32.75 -88.37 11.35c-48.8,6.32 -73.13,28.37 -73.13,66.15 0,17.03 5.84,31.13 17.68,42 12,10.86 28.05,16.37 48.32,16.37 28.21,0 51.07,-9.73 68.91,-29.18 17.67,-19.46 26.59,-44.11 26.59,-73.94zm309.46 -365.79c-25.3,0 -46.05,-7.46 -62.1,-22.54 -16.22,-15.08 -24.32,-33.4 -24.32,-55.29 0,-22.54 8.1,-40.86 24.32,-55.13 16.05,-14.27 36.8,-21.4 62.1,-21.4 25.78,0 46.53,7.13 62.58,21.4 15.89,14.27 24,32.59 24,55.13 0,22.7 -8.11,41.51 -24,56.1 -16.05,14.43 -36.8,21.73 -62.58,21.73zm74.1 563.44l-149.98 0 0 -486.43 149.98 0 0 486.43zm417.44 -351.04c-18.16,-9.89 -39.24,-14.75 -63.24,-14.75 -32.59,0 -58.05,12 -76.53,35.83 -18.32,24 -27.56,56.43 -27.56,97.61l0 232.35 -149.98 0 0 -486.43 149.98 0 0 90.32 1.94 0c23.84,-65.99 66.48,-98.91 128.26,-98.91 15.89,0 28.21,1.95 37.13,5.68l0 138.3z"/>
   <g>
    <path class="fil0" d="M72564.16 14372.06c-13.73,-74.85 -16.26,-91.45 -10.94,-171.76 -115.6,-1.31 -147.65,-22.75 -160.46,-135.52 -38.47,-338.86 101.76,-307.99 535.25,-373.41 485.83,-73.32 751.09,-126.92 1152.32,-356.85 67.23,-38.53 123.99,-80.58 185.97,-119.07 165.21,-102.61 253.46,-115.73 483.12,-124.73 177.06,-6.93 395.85,-3.4 560.63,38.36 163.23,41.38 229.58,172.83 282.49,329.15 -337.79,-15.01 -800.27,-117.22 -1120.05,-231.35 -40.33,-14.39 -85.55,18.92 -145.11,57.42 -39.41,25.48 -100.33,58.88 -136.74,86.49 49.57,49.78 391.71,161.49 489.55,187.7 174.43,46.73 391.07,88.04 575.51,115.11 207.46,30.46 613.26,40.85 663.22,186.85 15.49,45.29 16.68,108.56 15.02,159 -4.56,139.19 -18.8,173.74 -150.29,181.13 2.83,19.81 4.33,40.05 4.33,60.64 0,39.04 -5.3,76.84 -15.15,112.75 304.62,0.32 436.94,46.93 464.61,-289.26 23.24,-282.39 6.3,-496.25 -270.52,-568.88 -43.58,-11.44 -38.72,-1.54 -55.99,-40.05 -19.77,-44.09 -37.87,-90.08 -60.33,-132.55 -65.51,-123.89 -50.17,-122.74 -143.6,-241.88 -212.99,-271.55 -960.74,-272.46 -1264.34,-215.77 -353.31,65.97 -461.78,298.95 -1060.83,465.11 -179.41,49.76 -463.16,94.77 -657.09,109.56 100.76,-304.72 212.54,-351.14 569.49,-368.68 151.43,-7.44 294.98,-4.43 444.46,11.49 57.11,6.09 45.95,3.57 88.68,-21.55l151.93 -88.99c34.15,-20.44 52.09,-25.39 71.54,-51.03 -231.64,-106.87 -634.84,-94.93 -910.03,-63.66 -343.44,39.01 -507.17,139.95 -631.11,379.46 -28.55,55.18 -53.62,112.5 -80.19,168.77 -58.4,123.7 -8.03,55.47 -143.49,113.18 -133.9,57.04 -181.33,127.69 -200.49,306.87 -13.76,128.73 -9.7,346.33 53.42,446.58 37.87,60.15 85.12,70.51 170.15,78.28 67.96,6.2 187.89,7.95 255.06,1.09z"/>
    <path class="fil0" d="M73374.66 14373.61l1583.07 -0.73c-12.2,-71.31 -10.8,-101.55 -11.66,-174.9l-1560.88 1.16c2.96,20.27 4.52,40.99 4.52,62.08 0,38.91 -5.26,76.59 -15.05,112.39z"/>
    <path class="fil0" d="M72964.61 13945.12c174.57,0 316.1,141.52 316.1,316.1 0,174.57 -141.53,316.1 -316.1,316.1 -174.57,0 -316.1,-141.53 -316.1,-316.1 0,-174.58 141.53,-316.1 316.1,-316.1zm0 161.22c85.54,0 154.88,69.34 154.88,154.88 0,85.54 -69.34,154.88 -154.88,154.88 -85.54,0 -154.88,-69.34 -154.88,-154.88 0,-85.54 69.34,-154.88 154.88,-154.88z"/>
    <path class="fil0" d="M75362.88 13945.12c174.57,0 316.1,141.52 316.1,316.1 0,174.57 -141.53,316.1 -316.1,316.1 -174.58,0 -316.1,-141.53 -316.1,-316.1 0,-174.58 141.52,-316.1 316.1,-316.1zm0 161.22c85.54,0 154.88,69.34 154.88,154.88 0,85.54 -69.34,154.88 -154.88,154.88 -85.54,0 -154.88,-69.34 -154.88,-154.88 0,-85.54 69.34,-154.88 154.88,-154.88z"/>
    <path class="fil0" d="M73538.09 11929.42c-167.81,0 -303.86,136.04 -303.86,303.86 0,74.92 27.24,143.38 72.19,196.36l231.67 272.84 231.66 -272.84c44.95,-52.98 72.19,-121.45 72.19,-196.37 0.01,-167.81 -136.03,-303.85 -303.85,-303.85zm0 418.36c-69.02,0 -124.96,-55.95 -124.96,-124.96 0,-69.02 55.94,-124.97 124.96,-124.97 69.02,0 124.96,55.95 124.96,124.97 0,69.01 -55.94,124.96 -124.96,124.96z"/>
    <path class="fil0" d="M74766.92 11929.42c-167.82,0 -303.86,136.04 -303.86,303.86 0,74.92 27.24,143.38 72.19,196.36l231.67 272.84 231.66 -272.84c44.95,-52.98 72.18,-121.45 72.18,-196.37 0.01,-167.81 -136.03,-303.85 -303.84,-303.85zm0 418.36c-69.02,0 -124.96,-55.95 -124.96,-124.96 0,-69.02 55.94,-124.97 124.96,-124.97 69.01,0 124.96,55.95 124.96,124.97 0,69.01 -55.95,124.96 -124.96,124.96z"/>
   </g>
  </g>
 </g>
</svg>
